<svg xmlns="http://www.w3.org/2000/svg" xmlns:xlink="http://www.w3.org/1999/xlink" width="500" zoomAndPan="magnify" viewBox="0 0 375 374.999991" height="500" preserveAspectRatio="xMidYMid meet" version="1.0"><defs><clipPath id="49c5a63d01"><path d="M 37.5 76 L 333 76 L 333 279.148438 L 37.5 279.148438 Z M 37.5 76 " clip-rule="nonzero"/></clipPath></defs><g clip-path="url(#49c5a63d01)"><path fill="#b49c78" d="M 294.421875 279.464844 C 297.109375 279.464844 299.421875 277.566406 299.949219 274.929688 L 332.785156 110.015625 C 333.261719 107.617188 332.140625 105.1875 330.003906 103.996094 C 327.867188 102.804688 325.210938 103.125 323.417969 104.789062 C 323.417969 104.789062 265.914062 158.332031 245.871094 177.472656 C 236.355469 151.066406 209.070312 79.636719 209.070312 79.636719 C 208.269531 77.546875 206.304688 76.125 204.0625 76.019531 C 201.828125 75.917969 199.742188 77.152344 198.75 79.160156 C 198.75 79.160156 155.792969 166.441406 143.535156 191.089844 C 118.902344 171.46875 62.398438 131.371094 49.070312 124.027344 C 46.832031 122.792969 45.203125 122.304688 44.480469 122.214844 C 42.472656 121.96875 41.128906 122.652344 40.269531 123.265625 C 39.480469 123.835938 38.519531 124.777344 38.070312 126.5 C 37.914062 127.101562 37.847656 129.554688 38.660156 133.421875 C 43.792969 157.925781 76.554688 275.347656 76.554688 275.347656 C 77.230469 277.78125 79.449219 279.464844 81.980469 279.464844 Z M 289.800781 268.195312 L 86.257812 268.195312 C 81.160156 249.859375 60.4375 175.132812 52.289062 142.203125 C 51.996094 141.019531 51.714844 139.839844 51.449219 138.695312 C 73.671875 153.066406 124.441406 189.578125 141.78125 204.210938 C 143.085938 205.308594 144.820312 205.761719 146.496094 205.433594 C 148.171875 205.105469 149.609375 204.035156 150.402344 202.519531 C 152.796875 197.964844 188.910156 124.65625 203.148438 95.738281 C 213 121.597656 235.441406 180.691406 238.058594 189.328125 C 238.648438 191.273438 240.238281 192.753906 242.21875 193.195312 C 244.203125 193.636719 246.273438 192.980469 247.632812 191.472656 C 250.910156 187.84375 295.761719 145.96875 318.324219 124.9375 L 289.800781 268.195312 " fill-opacity="1" fill-rule="evenodd"/></g></svg>